<?xml version="1.0" standalone="no"?>
<!DOCTYPE svg PUBLIC "-//W3C//DTD SVG 20010904//EN"
 "http://www.w3.org/TR/2001/REC-SVG-20010904/DTD/svg10.dtd">
<svg version="1.0" xmlns="http://www.w3.org/2000/svg"
 width="512.000000pt" height="512.000000pt" viewBox="0 0 512.000000 512.000000"
 preserveAspectRatio="xMidYMid meet">

<g transform="translate(0.000000,512.000000) scale(0.100000,-0.100000)"
fill="#000000" stroke="none">
<path d="M330 5109 c-159 -31 -289 -164 -320 -329 -14 -73 -14 -4367 0 -4440
32 -169 162 -299 329 -330 74 -14 4368 -14 4442 0 167 31 297 161 329 330 14
73 14 4367 0 4441 -31 167 -161 297 -330 329 -67 13 -4385 12 -4450 -1z m2315
-1170 c27 -25 84 -77 125 -115 42 -38 122 -112 180 -164 88 -80 171 -157 250
-230 9 -8 64 -59 123 -114 85 -79 105 -101 96 -112 -19 -23 -2 -35 -194 141
-308 283 -516 475 -565 520 -30 29 -74 69 -97 89 -37 33 -41 40 -30 56 13 22
3 28 112 -71z m282 -369 c231 -212 425 -393 432 -404 10 -15 10 -21 -1 -32
-11 -10 -43 15 -188 148 -150 138 -368 340 -404 373 -18 17 -291 268 -295 271
-9 7 10 35 22 32 8 -2 203 -176 434 -388z m-72 -60 c224 -206 418 -383 431
-393 27 -21 30 -33 11 -52 -11 -11 -22 -5 -63 34 -27 25 -132 122 -234 216
-102 93 -192 176 -201 185 -28 27 -252 234 -320 295 -67 60 -88 100 -50 93 10
-2 202 -172 426 -378z m-409 262 c33 -31 107 -100 165 -152 186 -169 213 -194
264 -241 27 -26 64 -59 80 -74 312 -285 306 -278 288 -297 -16 -18 -18 -17
-57 19 -52 49 -150 140 -291 270 -60 55 -137 126 -170 156 -33 31 -126 116
-206 189 -151 138 -174 162 -164 178 12 19 31 9 91 -48z m-136 -69 c-25 -26
-50 -52 -56 -58 -6 -5 -67 -71 -134 -145 -188 -206 -242 -260 -253 -253 -6 3
-7 1 -3 -5 8 -14 -93 -124 -107 -115 -5 3 -7 2 -4 -4 6 -9 -46 -71 -168 -201
-42 -44 -53 -51 -63 -40 -12 15 10 40 273 323 62 66 136 147 165 180 30 33 56
62 59 65 3 3 49 52 101 110 194 214 202 222 219 205 14 -13 11 -20 -29 -62z
m90 2 c13 -16 -13 -46 -270 -320 -47 -49 -166 -178 -265 -285 -99 -107 -198
-215 -221 -239 -24 -26 -46 -41 -52 -37 -19 11 -15 18 36 73 26 28 84 90 128
139 45 49 92 101 105 115 249 270 505 554 507 560 5 13 18 11 32 -6z m78 -76
c-2 -4 -26 -32 -53 -61 -28 -29 -111 -118 -184 -198 -74 -80 -166 -179 -206
-220 -39 -41 -127 -136 -195 -210 -169 -185 -165 -181 -184 -174 -16 6 -16 8
0 25 9 10 21 16 27 12 6 -3 7 -1 3 6 -5 7 14 34 47 69 30 31 107 116 172 187
129 142 123 135 374 408 143 155 175 186 187 176 8 -7 13 -16 12 -20z m50 -41
c14 -14 6 -24 -140 -181 -62 -66 -117 -125 -123 -131 -43 -49 -130 -143 -185
-201 -36 -38 -125 -133 -196 -210 -71 -77 -132 -139 -136 -137 -5 1 -7 -4 -5
-11 1 -6 -4 -12 -12 -12 -42 0 -20 28 258 331 31 33 97 105 146 159 50 55 99
109 110 120 35 37 201 218 231 253 32 36 35 37 52 20z m190 -288 c104 -45 133
-102 133 -268 1 -64 1 -148 2 -187 2 -114 -43 -189 -141 -237 -38 -18 -68 -23
-154 -26 l-108 -4 -10 27 c-6 15 -10 128 -10 266 l0 239 98 0 c100 0 184 -17
230 -47 13 -8 26 -12 29 -10 2 3 -1 31 -7 62 -13 62 -51 114 -104 143 -33 17
-166 23 -219 9 -27 -7 -28 -6 -25 20 4 36 33 43 149 38 60 -2 103 -10 137 -25z
m765 -123 c6 -16 0 -23 -129 -163 -50 -55 -195 -214 -324 -354 -347 -380 -350
-383 -366 -369 -19 16 -18 20 18 59 94 104 481 524 533 580 163 174 194 207
216 232 26 30 44 35 52 15z m64 -63 c3 -9 -47 -66 -206 -239 -36 -39 -174
-191 -246 -271 -38 -42 -232 -251 -287 -309 -61 -63 -68 -69 -83 -54 -14 14
-7 24 72 110 101 110 283 307 298 323 6 6 71 76 144 156 266 289 297 317 308
284z m61 -57 c8 -9 -2 -25 -36 -63 -26 -28 -92 -100 -146 -160 -55 -60 -136
-149 -182 -199 -45 -49 -91 -99 -101 -111 -10 -12 -61 -68 -114 -125 -52 -57
-120 -132 -150 -166 -54 -62 -82 -76 -93 -48 -3 10 17 40 57 83 35 37 125 135
202 217 287 310 382 412 455 488 41 43 77 83 78 88 5 13 18 11 30 -4z m65 -53
c8 -8 -8 -27 -222 -263 -97 -107 -183 -202 -191 -211 -98 -111 -385 -420 -391
-420 -3 0 -12 7 -19 15 -12 14 67 105 390 450 36 39 99 106 140 150 41 44 105
111 141 150 37 38 79 85 94 103 26 31 45 39 58 26z m-1588 -223 c28 -25 95
-87 150 -136 55 -50 210 -192 345 -315 135 -123 251 -228 258 -235 10 -9 9
-15 -2 -30 -16 -22 0 -35 -226 175 -63 59 -180 167 -260 241 -80 74 -152 141
-160 149 -9 8 -68 64 -133 124 -92 86 -114 112 -106 123 12 14 25 5 134 -96z
m-37 -79 c53 -49 174 -158 267 -243 94 -84 172 -156 175 -159 3 -3 50 -46 105
-96 220 -201 202 -181 183 -200 -16 -17 -21 -15 -75 36 -32 30 -60 57 -63 60
-3 3 -68 64 -145 135 -194 178 -375 346 -470 436 -44 42 -93 87 -108 100 -20
17 -26 29 -22 41 9 22 14 18 153 -110z m-166 31 c1 -5 46 -46 98 -93 52 -46
124 -111 160 -145 36 -33 183 -168 327 -299 232 -211 261 -241 252 -258 -6
-11 -14 -18 -18 -16 -9 3 -161 143 -476 439 -38 36 -104 97 -145 134 -41 38
-104 97 -140 131 -36 35 -78 72 -93 84 -22 17 -25 25 -16 36 11 13 42 5 51
-13z m-10 -110 c40 -36 116 -105 168 -153 52 -48 115 -104 139 -126 25 -21 54
-48 66 -59 11 -11 63 -58 115 -105 92 -83 164 -149 265 -243 46 -42 49 -47 34
-62 -15 -15 -28 -6 -165 121 -371 342 -420 388 -621 578 -29 27 -50 53 -47 58
3 5 2 7 -3 6 -14 -5 -55 30 -48 41 11 19 21 13 97 -56z m558 -1089 c0 -3 -22
-43 -50 -89 -27 -46 -50 -87 -50 -91 0 -5 23 -45 50 -89 28 -44 50 -83 50 -87
0 -5 -10 -8 -23 -8 -19 0 -32 16 -67 76 l-43 76 -33 -59 c-47 -85 -57 -95 -81
-91 -21 3 -19 9 37 97 46 76 56 97 45 105 -12 10 -95 143 -95 152 0 2 11 4 24
4 19 0 32 -13 61 -65 20 -36 38 -65 40 -65 2 0 21 27 41 61 21 34 47 65 59 69
25 11 35 12 35 4z m399 -10 c66 -26 78 -101 24 -144 -14 -11 -20 -20 -14 -20
25 0 61 -49 61 -83 0 -72 -59 -110 -161 -105 l-64 3 -3 177 -2 177 22 4 c50 9
99 6 137 -9z m613 -159 c31 -93 57 -176 57 -182 1 -7 -9 -13 -22 -13 -20 0
-27 15 -73 158 l-50 157 -36 -115 c-20 -63 -42 -134 -48 -157 -10 -38 -14 -43
-40 -43 -17 0 -30 2 -30 4 0 7 120 348 126 358 3 5 18 8 32 6 25 -3 30 -14 84
-173z m148 45 c0 -98 4 -138 15 -160 26 -51 104 -54 139 -7 18 24 21 46 24
162 4 124 6 135 23 135 18 0 19 -9 19 -130 0 -91 -4 -141 -14 -165 -32 -75
-146 -101 -204 -47 -41 38 -52 86 -52 225 l0 117 25 0 25 0 0 -130z m-2416 97
c53 -30 75 -63 82 -123 16 -134 -74 -220 -223 -212 l-58 3 -3 143 c-2 138 -2
142 18 142 20 0 21 -4 18 -130 l-3 -130 54 0 c110 0 165 63 159 181 -2 31 -5
56 -7 54 -2 -2 -14 9 -27 24 -32 39 -102 57 -165 44 -44 -9 -49 -8 -49 9 0 16
9 18 83 18 66 0 89 -5 121 -23z m196 -137 l0 -160 80 0 c64 0 80 -3 80 -15 0
-12 -18 -15 -100 -15 l-100 0 0 175 c0 168 1 175 20 175 19 0 20 -7 20 -160z
m150 145 c0 -12 -14 -15 -65 -15 -51 0 -65 3 -65 15 0 12 14 15 65 15 51 0 65
-3 65 -15z m120 -165 c0 -173 -1 -180 -20 -180 -19 0 -20 7 -20 180 0 173 1
180 20 180 19 0 20 -7 20 -180z m240 46 c0 -130 1 -135 26 -165 51 -61 133
-29 148 57 3 20 6 83 6 140 0 95 1 102 20 102 19 0 20 -7 20 -125 0 -189 -26
-235 -132 -235 -105 0 -130 42 -136 228 l-5 132 27 0 26 0 0 -134z m1140 -26
l0 -159 78 -3 c60 -2 77 -6 77 -18 0 -12 -19 -16 -102 -18 l-103 -3 0 181 0
180 25 0 25 0 0 -160z m150 140 c0 -18 -7 -20 -70 -20 -63 0 -70 2 -70 20 0
18 7 20 70 20 63 0 70 -2 70 -20z m790 5 c0 -11 -11 -15 -40 -15 -22 0 -43 0
-47 -1 -5 0 -9 7 -11 15 -3 13 7 16 47 16 39 0 51 -4 51 -15z m170 0 c0 -12
-13 -15 -55 -15 l-55 0 0 -160 0 -160 -25 0 -25 0 0 175 0 175 80 0 c64 0 80
-3 80 -15z m78 -7 c-3 -25 -17 -32 -37 -19 -19 12 -6 41 19 41 16 0 21 -5 18
-22z m2 -203 c0 -69 -2 -125 -4 -125 -2 0 -11 -3 -20 -6 -14 -5 -16 10 -16
125 0 124 1 131 20 131 19 0 20 -7 20 -125z m-2700 55 c0 -6 -27 -10 -60 -10
-33 0 -60 4 -60 10 0 6 27 10 60 10 33 0 60 -4 60 -10z m1650 -5 c0 -12 -14
-15 -65 -15 -51 0 -65 3 -65 15 0 12 14 15 65 15 51 0 65 -3 65 -15z m-1360
-165 c0 -18 -7 -20 -70 -20 -54 0 -70 3 -70 14 0 18 20 23 88 25 46 1 52 -1
52 -19z"/>
<path d="M2513 3054 c-9 -4 -13 -35 -13 -105 l0 -99 54 0 c63 0 109 14 153 47
68 50 62 93 -18 133 -39 20 -151 35 -176 24z"/>
<path d="M2775 2870 c-4 -6 -30 -22 -58 -36 -38 -20 -72 -28 -134 -32 l-83 -5
0 -83 0 -84 59 0 c137 0 215 67 228 196 6 52 2 66 -12 44z"/>
<path d="M2720 1440 l0 -60 31 0 c17 0 40 5 52 11 69 37 38 109 -45 109 l-38
0 0 -60z"/>
<path d="M2720 1275 l0 -75 29 0 c69 0 111 41 97 95 -7 28 -56 55 -101 55 -25
0 -25 -1 -25 -75z"/>
</g>
</svg>
