<?xml version="1.0" encoding="utf-8" ?>
<svg xmlns="http://www.w3.org/2000/svg" xmlns:xlink="http://www.w3.org/1999/xlink" width="160" height="160" viewBox="0 0 160 160">
	<path transform="matrix(1 0 0 1 0 0)" d="M80 0C35.8172 0 0 35.8172 0 80L0 80.12C0 124.303 35.6972 160 79.88 160L80 160C124.183 160 160 124.303 160 80.12L160 80C160 35.8172 124.303 0 80.12 0L80 0Z" fill-rule="nonzero" fill="rgb(243, 244, 246)"/>
	<defs>
		<clipPath id="clipPath1581800622">
			<path transform="matrix(1 0 0 1 40 40)" d="M0 0L80 0L80 80L0 80L0 0Z" fill-rule="nonzero"/>
		</clipPath>
	</defs>
	<g clip-path="url(#clipPath1581800622)">
		<defs>
			<clipPath id="clipPath0688442584">
				<path transform="matrix(1 0 0 1 40 40)" d="M0 0L80 0L80 80L0 80L0 0Z" fill-rule="nonzero"/>
			</clipPath>
		</defs>
		<g clip-path="url(#clipPath0688442584)">
			<path transform="matrix(1 0 0 1 47.5 52.5)" d="M-2.5 7.5C-2.5 1.97715 1.97715 -2.5 7.5 -2.5L57.5 -2.5C63.0228 -2.5 67.5 1.97715 67.5 7.5L67.5 52.5C67.5 58.0228 63.0228 62.5 57.5 62.5L7.5 62.5C1.97715 62.5 -2.5 58.0228 -2.5 52.5L-2.5 7.5ZM7.5 2.5C4.73858 2.5 2.5 4.73858 2.5 7.5L2.5 52.5C2.5 55.2614 4.73858 57.5 7.5 57.5L57.5 57.5C60.2614 57.5 62.5 55.2614 62.5 52.5L62.5 7.5C62.5 4.73858 60.2614 2.5 57.5 2.5L7.5 2.5Z" fill-rule="nonzero" fill="rgb(0, 0, 0)"/>
			<path transform="matrix(1 0 0 1 82.5 72.5)" d="M3.75 0C5.82107 0 7.5 1.67893 7.5 3.75C7.5 5.82107 5.82107 7.5 3.75 7.5C1.67893 7.5 0 5.82107 0 3.75C0 1.67893 1.67893 0 3.75 0Z" fill-rule="nonzero" fill="rgb(0, 0, 0)"/>
			<path transform="matrix(1 0 0 1 95 72.5)" d="M3.75 0C5.82107 0 7.5 1.67893 7.5 3.75C7.5 5.82107 5.82107 7.5 3.75 7.5C1.67893 7.5 0 5.82107 0 3.75C0 1.67893 1.67893 0 3.75 0Z" fill-rule="nonzero" fill="rgb(0, 0, 0)"/>
			<path transform="matrix(1 0 0 1 82.5 85)" d="M3.75 0C5.82107 0 7.5 1.67893 7.5 3.75C7.5 5.82107 5.82107 7.5 3.75 7.5C1.67893 7.5 0 5.82107 0 3.75C0 1.67893 1.67893 0 3.75 0Z" fill-rule="nonzero" fill="rgb(0, 0, 0)"/>
			<path transform="matrix(1 0 0 1 95 85)" d="M3.75 0C5.82107 0 7.5 1.67893 7.5 3.75C7.5 5.82107 5.82107 7.5 3.75 7.5C1.67893 7.5 0 5.82107 0 3.75C0 1.67893 1.67893 0 3.75 0Z" fill-rule="nonzero" fill="rgb(0, 0, 0)"/>
			<path transform="matrix(1 0 0 1 57.5 85)" d="M3.75 0C5.82107 0 7.5 1.67893 7.5 3.75C7.5 5.82107 5.82107 7.5 3.75 7.5C1.67893 7.5 0 5.82107 0 3.75C0 1.67893 1.67893 0 3.75 0Z" fill-rule="nonzero" fill="rgb(0, 0, 0)"/>
			<path transform="matrix(1 0 0 1 70 85)" d="M3.75 0C5.82107 0 7.5 1.67893 7.5 3.75C7.5 5.82107 5.82107 7.5 3.75 7.5C1.67893 7.5 0 5.82107 0 3.75C0 1.67893 1.67893 0 3.75 0Z" fill-rule="nonzero" fill="rgb(0, 0, 0)"/>
			<path transform="matrix(1 0 0 1 57.5 97.5)" d="M3.75 0C5.82107 0 7.5 1.67893 7.5 3.75C7.5 5.82107 5.82107 7.5 3.75 7.5C1.67893 7.5 0 5.82107 0 3.75C0 1.67893 1.67893 0 3.75 0Z" fill-rule="nonzero" fill="rgb(0, 0, 0)"/>
			<path transform="matrix(1 0 0 1 70 97.5)" d="M3.75 0C5.82107 0 7.5 1.67893 7.5 3.75C7.5 5.82107 5.82107 7.5 3.75 7.5C1.67893 7.5 0 5.82107 0 3.75C0 1.67893 1.67893 0 3.75 0Z" fill-rule="nonzero" fill="rgb(0, 0, 0)"/>
			<path transform="matrix(1 0 0 1 82.5 97.5)" d="M3.75 0C5.82107 0 7.5 1.67893 7.5 3.75C7.5 5.82107 5.82107 7.5 3.75 7.5C1.67893 7.5 0 5.82107 0 3.75C0 1.67893 1.67893 0 3.75 0Z" fill-rule="nonzero" fill="rgb(0, 0, 0)"/>
			<path transform="matrix(1 0 0 1 60 47.5)" d="M0 -2.5C-1.3807 -2.5 -2.5 -1.3807 -2.5 0L-2.5 5C-2.5 6.3807 -1.3807 7.5 0 7.5C1.3807 7.5 2.5 6.3807 2.5 5L2.5 0C2.5 -1.3807 1.3807 -2.5 0 -2.5ZM40 -2.5C38.6193 -2.5 37.5 -1.3807 37.5 0L37.5 5C37.5 6.3807 38.6193 7.5 40 7.5C41.3807 7.5 42.5 6.3807 42.5 5L42.5 0C42.5 -1.3807 41.3807 -2.5 40 -2.5Z" fill-rule="evenodd" fill="rgb(0, 0, 0)"/>
			<path transform="matrix(1 0 0 1 47.5 65)" d="M65 2.5L0 2.5L0 -2.5L65 -2.5L65 2.5Z" fill-rule="nonzero" fill="rgb(0, 0, 0)"/>
		</g>
	</g>
</svg>
